<svg xmlns="http://www.w3.org/2000/svg" fill-rule="evenodd" stroke-linejoin="round" stroke-miterlimit="1.414" clip-rule="evenodd" viewBox="0 0 400 168">
  <path fill="#ff8700" fill-rule="nonzero" d="M160.108 65.928v72.729h-10.136v-72.73H132.02v-8.856h46.039v8.857h-17.951zm54.4 34.844v37.885H204.01v-37.885l-20.855-43.7h11.182l15.377 32.973L225.1 57.07h10.613l-21.206 43.701zm52.673 7.113h-9.79v30.772h-10.146V57.07s10.033-.823 19.71-.823c17.71 0 22.84 10.96 22.84 25.296 0 17.712-6.067 26.34-22.614 26.34m1.16-43.239c-6.404 0-10.952.7-10.952.7v34.02h10.952c6.53 0 11.082-4.306 11.082-17.009 0-11.66-2.809-17.71-11.082-17.71m58.052 74.819c-19.225 0-24.356-13.983-24.356-42.53 0-27.396 5.132-40.686 24.356-40.686 19.224 0 24.351 13.29 24.351 40.687 0 28.546-5.127 42.529-24.351 42.529m0-74.71c-10.481 0-13.984 7.116-13.984 32.76 0 25.047 3.503 33.45 13.984 33.45 10.48 0 13.982-8.403 13.982-33.45.002-25.644-3.501-32.76-13.982-32.76M380 139.465c-5.708 0-14.207-1.741-15.27-1.99v-8.493c2.806.578 10.026 1.778 15.16 1.778 5.931 0 9.789-5.037 9.789-14.022 0-10.594-1.737-16.191-10.018-16.191H370.1v-8.518h8.384c9.457 0 9.904-9.673 9.904-14.329 0-9.212-2.902-12.945-8.726-12.945-5.126 0-10.968 1.282-14.337 1.984v-8.505c1.275-.236 8.162-1.985 14.096-1.985 12 0 18.888 5.13 18.888 22.503 0 7.927-2.81 14.906-8.987 17.135 7.113.466 10.37 8.272 10.37 19.691 0 17.371-6.755 23.887-19.69 23.887M83.164 104.98c-1.643.485-2.954.667-4.674.667-14.09 0-34.777-49.234-34.777-65.62 0-6.033 1.427-8.045 3.443-9.773-17.243 2.013-37.933 8.34-44.55 16.385C1.179 48.654.309 51.813.309 55.838c0 25.58 27.304 83.625 46.563 83.625 8.913.002 23.935-14.645 36.294-34.483m-8.993-76.444c17.818 0 35.647 2.873 35.647 12.93 0 20.405-12.94 45.132-19.546 45.132-11.785 0-26.443-32.771-26.443-49.158 0-7.472 2.874-8.904 10.342-8.904"/>
</svg>
